<?xml version="1.0" encoding="UTF-8" standalone="no"?>
<!-- Created with Inkscape (http://www.inkscape.org/) -->

<svg
   width="200"
   height="200"
   viewBox="0 0 12.7 12.7"
   version="1.1"
   id="svg1"
   sodipodi:docname="drawing2.svg"
   xml:space="preserve"
   inkscape:version="1.3.2 (091e20e, 2023-11-25, custom)"
   xmlns:inkscape="http://www.inkscape.org/namespaces/inkscape"
   xmlns:sodipodi="http://sodipodi.sourceforge.net/DTD/sodipodi-0.dtd"
   xmlns:xlink="http://www.w3.org/1999/xlink"
   xmlns="http://www.w3.org/2000/svg"
   xmlns:svg="http://www.w3.org/2000/svg"><sodipodi:namedview
     id="namedview1"
     pagecolor="#ffffff"
     bordercolor="#000000"
     borderopacity="0"
     inkscape:showpageshadow="2"
     inkscape:pageopacity="0.0"
     inkscape:pagecheckerboard="0"
     inkscape:deskcolor="#565656"
     inkscape:document-units="mm"
     showgrid="true"
     inkscape:lockguides="false"
     inkscape:zoom="12.094472"
     inkscape:cx="12.485043"
     inkscape:cy="19.719753"
     inkscape:window-width="1920"
     inkscape:window-height="1017"
     inkscape:window-x="-8"
     inkscape:window-y="-8"
     inkscape:window-maximized="1"
     inkscape:current-layer="layer1"><inkscape:grid
       id="grid1"
       units="mm"
       originx="0"
       originy="0"
       spacingx="1"
       spacingy="1"
       empcolor="#0099e5"
       empopacity="0.30196078"
       color="#0099e5"
       opacity="0.14901961"
       empspacing="5"
       dotted="false"
       gridanglex="30"
       gridanglez="30"
       visible="true" /></sodipodi:namedview><defs
     id="defs1"><marker
       style="overflow:visible"
       id="ArrowWideHeavy"
       refX="0"
       refY="0"
       orient="auto-start-reverse"
       inkscape:stockid="Wide, heavy arrow"
       markerWidth="0.7"
       markerHeight="0.7"
       viewBox="0 0 1 1"
       inkscape:isstock="true"
       inkscape:collect="always"
       preserveAspectRatio="xMidYMid"><path
         style="fill:context-stroke;fill-rule:evenodd;stroke:none"
         d="m 1,0 -3,3 h -2 l 3,-3 -3,-3 h 2 z"
         id="path21" /></marker><pattern
       inkscape:collect="always"
       xlink:href="#pattern6-7"
       preserveAspectRatio="xMidYMid"
       id="pattern19"
       patternTransform="translate(190,350)" /><pattern
       patternUnits="userSpaceOnUse"
       width="29"
       height="20"
       patternTransform="translate(190,350)"
       preserveAspectRatio="xMidYMid"
       style="fill:#000000"
       id="pattern6-7"
       inkscape:label=""
       inkscape:collect="always"
       inkscape:isstock="true"><path
         style="fill:none;stroke:#000000;stroke-width:10;stroke-linecap:butt;stroke-dasharray:none;paint-order:stroke markers fill;stop-color:#000000"
         d="M 0,5 C 19,5 10,15 29,15"
         id="path4-2"
         sodipodi:nodetypes="cc" /></pattern></defs><g
     inkscape:label="Layer 1"
     inkscape:groupmode="layer"
     id="layer1"><text
       xml:space="preserve"
       style="font-style:normal;font-variant:normal;font-weight:normal;font-stretch:normal;font-size:6.35px;font-family:Orbit;-inkscape-font-specification:Orbit;fill:#ff0077;fill-opacity:1;stroke:#ff0077;stroke-width:0.112;stroke-linejoin:miter;stroke-dasharray:none;stroke-opacity:1;paint-order:normal"
       x="0.56832272"
       y="11.829651"
       id="text14"><tspan
         sodipodi:role="line"
         id="tspan14"
         style="font-style:normal;font-variant:normal;font-weight:normal;font-stretch:normal;font-size:6.35px;font-family:Orbit;-inkscape-font-specification:Orbit;fill:#ff0077;fill-opacity:1;stroke-width:0.112;stroke-dasharray:none"
         x="0.56832272"
         y="11.829651">x25</tspan></text><g
       id="g21"
       transform="translate(0.03853066,0.10518209)"><g
         id="tiny_-_white"
         data-name="tiny - white"
         transform="matrix(0.05278407,0,0,0.05278407,0.34944792,0.2829342)"
         style="fill:#b31b1b;fill-opacity:1"><path
           d="m 586.72,255.616 a 3.377,3.377 0 0 1 0.448,0.031 5.917,5.917 0 0 1 3.581,2.79 c 0.454,1.116 0.314,2.023 -1.315,4.141 l -26.266,31.022 -8.558,-10.047 29.348,-26.616 a 4.406,4.406 0 0 1 2.762,-1.321 m 0,-1.5 a 5.766,5.766 0 0 0 -3.69,1.643 l -0.041,0.032 -0.038,0.035 -29.351,26.616 -1.077,0.977 0.943,1.107 8.558,10.047 1.145,1.344 1.141,-1.348 26.267,-31.022 0.022,-0.027 0.022,-0.028 c 1.574,-2.046 2.327,-3.622 1.516,-5.619 a 7.309,7.309 0 0 0 -4.779,-3.714 5.083,5.083 0 0 0 -0.64,-0.043 z"
           transform="translate(-526.086,-245.559)"
           fill="#ffffff"
           id="path1"
           style="fill:#b31b1b;fill-opacity:1" /><path
           d="m 553.423,284.593 8.977,10.558 35.511,42.749 c 0.873,1.093 1.419,2.186 1.047,3.418 a 4.092,4.092 0 0 1 -2.721,2.837 3.557,3.557 0 0 1 -1.045,0.159 4,4 0 0 1 -2.687,-1.124 L 548.01,300.808 c -3.5,-3.5 -2.971,-8.151 0.436,-11.558 l 4.977,-4.657 m 0.124,-2.17 -1.147,1.077 -4.976,4.656 c -4.192,4.191 -4.372,9.816 -0.473,13.714 l 44.521,42.4 a 5.485,5.485 0 0 0 3.722,1.538 5.1,5.1 0 0 0 1.483,-0.224 5.59,5.59 0 0 0 3.719,-3.838 5.176,5.176 0 0 0 -1.31,-4.788 l -35.53,-42.767 -8.988,-10.571 -1.019,-1.2 z"
           transform="translate(-526.086,-245.559)"
           fill="#ffffff"
           id="path2"
           style="fill:#b31b1b;fill-opacity:1" /><path
           d="m 562.4,295.151 9.556,11.5 5.761,-5.356 a 7.926,7.926 0 0 0 0.041,-11.743 l -43.7,-41.923 c 0,0 -1.671,-2.029 -3.437,-2.071 a 4.49,4.49 0 0 0 -4.23,2.718 c -0.688,1.651 -0.194,2.809 1.315,4.97 l 29.306,35.565 z"
           transform="translate(-526.086,-245.559)"
           fill="#ffffff"
           id="path3"
           style="fill:#b31b1b;fill-opacity:1" /><path
           d="m 553.7,306.223 -17.116,21.024 c -1.255,1.337 -2.032,3.683 -1.331,5.367 a 4.587,4.587 0 0 0 4.287,2.841 4.087,4.087 0 0 0 3.082,-1.523 l 20.328,-18.9 z"
           transform="translate(-526.086,-245.559)"
           fill="#ffffff"
           id="path4"
           style="fill:#b31b1b;fill-opacity:1" /><path
           d="M 592.074,250.547"
           transform="translate(-526.086,-245.559)"
           fill="#ffffff"
           stroke="#000000"
           stroke-miterlimit="10"
           stroke-width="0.25"
           id="path5"
           style="fill:#b31b1b;fill-opacity:1" /></g><g
         id="g1"
         transform="matrix(0.01181176,0,0,0.01181176,7.7375558,-0.08277616)"><g
           id="g5"
           style="fill:#fa502e;fill-opacity:1"><path
             id="path1-1"
             d="M 191.54167,257.79167 V 334.5 l 53.66666,-14.5 6,-62.20833 z"
             style="fill:#fa502e;fill-opacity:1;stroke:none" /><path
             id="path2-2"
             d="m 191.54167,32 v 80.20833 h 121.04166 l -4.375,47.70834 H 191.54167 v 49.375 H 304.08333 L 290.5,357.70833 l -97.91667,27 V 385 h -1.04166 v 95 L 349.08333,427.79167 384,32 Z"
             style="fill:#fa502e;fill-opacity:1" /></g><g
           id="g4"
           style="fill:#fd982c;fill-opacity:1"><path
             id="path4-1"
             d="m 191.54167,159.91667 h -67.125 l 4.08333,49.375 h 63.04167 z"
             style="fill:#fd982c;fill-opacity:1" /><path
             id="path3-4"
             d="M 191.54167,32 H 0 L 34.916667,427.79167 191.5,480 h 0.0417 V 385 H 191.5 l -98.708333,-27.29167 -6,-75.79166 H 134.5 L 138,320 l 53.5,14.5 h 0.0417 V 257.79167 H 84.291667 L 71.5,112.20833 h 120.04167 z"
             style="fill:#fd982c;fill-opacity:1" /></g></g><path
         style="fill:#ff0077;fill-opacity:1;stroke:#ff0077;stroke-width:0.512;stroke-linejoin:miter;stroke-dasharray:none;stroke-opacity:1;marker-end:url(#ArrowWideHeavy);paint-order:normal"
         d="M 3.6345285,2.9631347 7.2442169,2.9316593"
         id="path20" /></g></g></svg>
